<svg xmlns="http://www.w3.org/2000/svg" viewBox="0 0 1000 100" preserveAspectRatio="none">
<path class="divider-fill" d="M 0,-4.3035178e-6 C 6.51,57.380256 31.64,92.093016 55.83,92.093016 c 44.99999,0 52.80999,-45.84321 76.99999,-45.84321 46,0 58.22,42.17372 88.64,43.41383 52,2.10411 98.42,-67.93131 150,-57.858 26.12,5.08239 48.66,30.10811 72.73,46.91051 38.47,26.855394 85.75,31.510864 120.94,-4.82827 9.28,-9.5854 17.62,-21.84414 27.93,-28.29878 39.48,-24.71061 82.38,45.59925 123.36,27.98367 21.4,-9.19914 39.75,-41.76713 61.49,-34.85507 9.2,2.92746 25.66,21.69166 34.1,28.1768 33.48,25.72709 76.14,29.93531 109.81,18.87602 33.67,-11.05929 62.57,-29.15262 78.17001,-85.7705203035178 z"/>
</svg>