<svg xmlns="http://www.w3.org/2000/svg" viewBox="0 0 1000 125" preserveAspectRatio="none">
<path class="divider-fill" d="m 0,105.67464 c 0,0 30.428355,1.32968 48.428355,-23.994243 0,0 20.991645,7.99808 29.991645,-7.998081 0,0 1.33,4.328961 9.66,1.329681 0,0 2,21.634808 20,8.337999 0,0 10,34.991604 43,8.657922 0,0 5,1.353987 10,-4.314653 0,0 22.67,25.979455 39,-5.343029 0,0 21.28991,8.339283 31.61991,-0.328637 0,0 1.38009,23.653041 36.38009,23.653041 35,0 39.34,-14.996403 39.34,-14.996403 0,0 7.00501,35.001143 43.66501,13.006423 0,0 10.64662,6.98052 16.64662,5.32092 0,0 6.68837,15.99442 25.68837,15.99442 19,0 38.33,-10.99736 38.33,-37.321043 0,0 17,8.66792 27.33,-8.99784 0,0 9.34,11.297288 32,1.32968 0,0 1.67,8.997841 11.34,8.337999 0,0 -3.35002,24.009834 25.98998,20.680634 0,0 21.67002,22.96889 24.01002,-11.022952 0,0 4.66,0 9.33,-5.658641 0,0 2.33,16.656003 26,16.656003 23.67,0 29.33,-24.654084 22.33,-34.991603 0,0 14.67,7.388227 18,-3.99904 0,0 13.67,18.995441 33.67,10.307526 16.54,-7.16828 9.33,-26.993522 9.33,-26.993522 0,0 22.34,18.325602 44,-16.666 0,0 9.67,28.663121 46.67,28.663121 27.67,0 37.67,-21.650492 37.67,-21.650492 0,0 27,32.647853 42.33,-8.012389 0,0 3.67,8.997841 13.33,0.669839 0,0 -2.66,12.327042 6,10.657443 0,0 -8,14.336559 -8,28.993041 0,14.656483 27.32665,31.342016 53.32665,15.005939 0,0 31.84335,43.320067 93.59335,14.986867 V 0 H 0 Z" />
</svg>