<svg xmlns="http://www.w3.org/2000/svg" preserveAspectRatio="none" viewBox="0 0 1440 320">
<path class="divider-fill"  d="M0,64L6.9,101.3C13.7,139,27,213,41,250.7C54.9,288,69,288,82,277.3C96,267,110,245,123,245.3C137.1,245,151,267,165,250.7C178.3,235,192,181,206,144C219.4,107,233,85,247,74.7C260.6,64,274,64,288,58.7C301.7,53,315,43,329,69.3C342.9,96,357,160,370,176C384,192,398,160,411,149.3C425.1,139,439,149,453,165.3C466.3,181,480,203,494,197.3C507.4,192,521,160,535,160C548.6,160,562,192,576,213.3C589.7,235,603,245,617,250.7C630.9,256,645,256,658,250.7C672,245,686,235,699,218.7C713.1,203,727,181,741,192C754.3,203,768,245,782,229.3C795.4,213,809,139,823,138.7C836.6,139,850,213,864,229.3C877.7,245,891,203,905,181.3C918.9,160,933,160,946,144C960,128,974,96,987,106.7C1001.1,117,1015,171,1029,160C1042.3,149,1056,75,1070,80C1083.4,85,1097,171,1111,181.3C1124.6,192,1138,128,1152,90.7C1165.7,53,1179,43,1193,53.3C1206.9,64,1221,96,1234,138.7C1248,181,1262,235,1275,218.7C1289.1,203,1303,117,1317,80C1330.3,43,1344,53,1358,48C1371.4,43,1385,21,1399,32C1412.6,43,1426,85,1433,106.7L1440,128L1440,320L1433.1,320C1426.3,320,1413,320,1399,320C1385.1,320,1371,320,1358,320C1344,320,1330,320,1317,320C1302.9,320,1289,320,1275,320C1261.7,320,1248,320,1234,320C1220.6,320,1207,320,1193,320C1179.4,320,1166,320,1152,320C1138.3,320,1125,320,1111,320C1097.1,320,1083,320,1070,320C1056,320,1042,320,1029,320C1014.9,320,1001,320,987,320C973.7,320,960,320,946,320C932.6,320,919,320,905,320C891.4,320,878,320,864,320C850.3,320,837,320,823,320C809.1,320,795,320,782,320C768,320,754,320,741,320C726.9,320,713,320,699,320C685.7,320,672,320,658,320C644.6,320,631,320,617,320C603.4,320,590,320,576,320C562.3,320,549,320,535,320C521.1,320,507,320,494,320C480,320,466,320,453,320C438.9,320,425,320,411,320C397.7,320,384,320,370,320C356.6,320,343,320,329,320C315.4,320,302,320,288,320C274.3,320,261,320,247,320C233.1,320,219,320,206,320C192,320,178,320,165,320C150.9,320,137,320,123,320C109.7,320,96,320,82,320C68.6,320,55,320,41,320C27.4,320,14,320,7,320L0,320Z"></path>
</svg>