<svg xmlns="http://www.w3.org/2000/svg" viewBox="0 0 100 100" preserveAspectRatio="none">
<path class="divider-fill" d="M0,91.356L4.735,94.841L12.208,90.404L18.955,78.923L25.102,85.982L32.144,70.558L38.738,77.232L45.611,63.354L52.728,74.286L55.69,68.825L63.759,53.873L71.384,58.923L77.921,37.768L83.099,46.109L88.63,29.442L91.688,36.153L100,0L100,100L0,100L0,91.356z" style="fill-opacity:0.5"/>
<path class="divider-fill" d="M0,90.507L4.735,95.804L12.208,93.571L18.955,83.658L25.102,90.609L32.144,78.424L39.523,83.899L45.533,75.447L51.991,85.401L55.388,78.867L63.759,63.543L71.384,68.777L77.92,52.383L83.099,60.192L88.368,45.388L93.213,53.714L100,25.599L100,100L0,100L0,90.507z"/>
</svg>