<svg xmlns="http://www.w3.org/2000/svg" viewBox="0 0 100 100" preserveAspectRatio="none">
<path class="divider-fill" d="M0,0L7.068,24.243L12.188,20.293L21.301,47.175L29.023,40.343L34.609,59.393L41.648,57.164L50,78.657L57.999,57.421L65.293,68.034L70.389,60.483L77.5,37.3L83.22,40.343L88.438,27.707L92.622,33.007L100,0L100,100L0,100L0,0z" style="fill-opacity:0.5;"/>
<path class="divider-fill" d="M0,0L4.845,30.295L12.188,25.364L17.509,60.102L29.023,50.421L34.609,74.243L41.648,71.45L50.218,93.962L58.435,71.466L64.683,79.379L69.779,73.938L77.5,46.629L83.22,50.421L88.438,34.636L94.322,41.1L100,0L100,100L0,100L0,0z"/>
</svg>