<svg xmlns="http://www.w3.org/2000/svg" viewBox="0 0 1000 100" preserveAspectRatio="none">
<path class="divider-fill" style="opacity:0.33" d="M 473,67.3 C 269.1,155.6 209.9,36.616636 152.7,70.616636 66,122.41664 0,63.016636 0,63.016636 V 0 h 1000 v 59.7 c 0,0 -51.81843,27.426654 -84.61843,30.626654 C 882.58157,93.626654 842.3,76.7 829.3,66.9 806,49.6 745.3,8.7 694.9,4.7 644.5,0.7 492.4,59 473,67.3 Z" />
<path class="divider-fill" style="opacity:0.66" d="M 717.08516,66.305009 C 671.58516,66.305009 656.8,44.1 604.9,28.2 576.3,19.5 462.89159,13.125046 359.19159,62.325046 255.49159,111.52505 259.2,32.9 201.7,67.3 115.7,118.3 0,39.8 0,39.8 V 0 H 1000 V 36.5 C 1000,36.5 971.8,18 907.9,18 810.2,18.1 758.78516,66.305009 717.08516,66.305009 Z" />
<path class="divider-fill" d="M 766.1,28.9 C 566.1,-28.6 500.1,94.4 371,48.4 242,1.8 242.33166,13.69159 185.13166,28.89159 128.33166,44.09159 132.3,44.9 89.9,52.5 28.6,63.7 0,0 0,0 h 1000 c 0,0 -9.9,40.9 -83.6,48.1 C 842.7,55.3 829.6,47 766.1,28.9 Z" />
</svg>
