<svg xmlns="http://www.w3.org/2000/svg" preserveAspectRatio="none" viewBox="0 0 1440 320">
<path class="divider-fill"  d="M0,320L6.7,272C13.3,224,27,128,40,128C53.3,128,67,224,80,261.3C93.3,299,107,277,120,229.3C133.3,181,147,107,160,74.7C173.3,43,187,53,200,53.3C213.3,53,227,43,240,74.7C253.3,107,267,181,280,218.7C293.3,256,307,256,320,266.7C333.3,277,347,299,360,282.7C373.3,267,387,213,400,192C413.3,171,427,181,440,192C453.3,203,467,213,480,202.7C493.3,192,507,160,520,149.3C533.3,139,547,149,560,149.3C573.3,149,587,139,600,149.3C613.3,160,627,192,640,202.7C653.3,213,667,203,680,192C693.3,181,707,171,720,181.3C733.3,192,747,224,760,202.7C773.3,181,787,107,800,106.7C813.3,107,827,181,840,218.7C853.3,256,867,256,880,261.3C893.3,267,907,277,920,261.3C933.3,245,947,203,960,176C973.3,149,987,139,1000,128C1013.3,117,1027,107,1040,106.7C1053.3,107,1067,117,1080,133.3C1093.3,149,1107,171,1120,165.3C1133.3,160,1147,128,1160,128C1173.3,128,1187,160,1200,176C1213.3,192,1227,192,1240,208C1253.3,224,1267,256,1280,266.7C1293.3,277,1307,267,1320,240C1333.3,213,1347,171,1360,154.7C1373.3,139,1387,149,1400,144C1413.3,139,1427,117,1433,106.7L1440,96L1440,320L1433.3,320C1426.7,320,1413,320,1400,320C1386.7,320,1373,320,1360,320C1346.7,320,1333,320,1320,320C1306.7,320,1293,320,1280,320C1266.7,320,1253,320,1240,320C1226.7,320,1213,320,1200,320C1186.7,320,1173,320,1160,320C1146.7,320,1133,320,1120,320C1106.7,320,1093,320,1080,320C1066.7,320,1053,320,1040,320C1026.7,320,1013,320,1000,320C986.7,320,973,320,960,320C946.7,320,933,320,920,320C906.7,320,893,320,880,320C866.7,320,853,320,840,320C826.7,320,813,320,800,320C786.7,320,773,320,760,320C746.7,320,733,320,720,320C706.7,320,693,320,680,320C666.7,320,653,320,640,320C626.7,320,613,320,600,320C586.7,320,573,320,560,320C546.7,320,533,320,520,320C506.7,320,493,320,480,320C466.7,320,453,320,440,320C426.7,320,413,320,400,320C386.7,320,373,320,360,320C346.7,320,333,320,320,320C306.7,320,293,320,280,320C266.7,320,253,320,240,320C226.7,320,213,320,200,320C186.7,320,173,320,160,320C146.7,320,133,320,120,320C106.7,320,93,320,80,320C66.7,320,53,320,40,320C26.7,320,13,320,7,320L0,320Z"></path>
</svg>