<svg xmlns="http://www.w3.org/2000/svg" preserveAspectRatio="none" viewBox="0 0 1440 320">
<path class="divider-fill"  d="M0,0L6.7,21.3C13.3,43,27,85,40,117.3C53.3,149,67,171,80,202.7C93.3,235,107,277,120,266.7C133.3,256,147,192,160,170.7C173.3,149,187,171,200,160C213.3,149,227,107,240,117.3C253.3,128,267,192,280,218.7C293.3,245,307,235,320,218.7C333.3,203,347,181,360,176C373.3,171,387,181,400,202.7C413.3,224,427,256,440,250.7C453.3,245,467,203,480,154.7C493.3,107,507,53,520,53.3C533.3,53,547,107,560,112C573.3,117,587,75,600,74.7C613.3,75,627,117,640,160C653.3,203,667,245,680,256C693.3,267,707,245,720,218.7C733.3,192,747,160,760,133.3C773.3,107,787,85,800,112C813.3,139,827,213,840,256C853.3,299,867,309,880,288C893.3,267,907,213,920,208C933.3,203,947,245,960,229.3C973.3,213,987,139,1000,117.3C1013.3,96,1027,128,1040,165.3C1053.3,203,1067,245,1080,261.3C1093.3,277,1107,267,1120,256C1133.3,245,1147,235,1160,213.3C1173.3,192,1187,160,1200,160C1213.3,160,1227,192,1240,197.3C1253.3,203,1267,181,1280,170.7C1293.3,160,1307,160,1320,170.7C1333.3,181,1347,203,1360,202.7C1373.3,203,1387,181,1400,154.7C1413.3,128,1427,96,1433,80L1440,64L1440,320L1433.3,320C1426.7,320,1413,320,1400,320C1386.7,320,1373,320,1360,320C1346.7,320,1333,320,1320,320C1306.7,320,1293,320,1280,320C1266.7,320,1253,320,1240,320C1226.7,320,1213,320,1200,320C1186.7,320,1173,320,1160,320C1146.7,320,1133,320,1120,320C1106.7,320,1093,320,1080,320C1066.7,320,1053,320,1040,320C1026.7,320,1013,320,1000,320C986.7,320,973,320,960,320C946.7,320,933,320,920,320C906.7,320,893,320,880,320C866.7,320,853,320,840,320C826.7,320,813,320,800,320C786.7,320,773,320,760,320C746.7,320,733,320,720,320C706.7,320,693,320,680,320C666.7,320,653,320,640,320C626.7,320,613,320,600,320C586.7,320,573,320,560,320C546.7,320,533,320,520,320C506.7,320,493,320,480,320C466.7,320,453,320,440,320C426.7,320,413,320,400,320C386.7,320,373,320,360,320C346.7,320,333,320,320,320C306.7,320,293,320,280,320C266.7,320,253,320,240,320C226.7,320,213,320,200,320C186.7,320,173,320,160,320C146.7,320,133,320,120,320C106.7,320,93,320,80,320C66.7,320,53,320,40,320C26.7,320,13,320,7,320L0,320Z"></path>
</svg>