<svg xmlns="http://www.w3.org/2000/svg" viewBox="0 0 1000 100" preserveAspectRatio="none">
<path class="divider-fill" d="m 0,31.037472 c 6.36,0 7.16,3.99981 7.16,8.8394 0,11.71372 -4.22,25.97278 1.15,36.74282 1.32,2.59728 3.32,5.19456 6.39,6.29407 4.71,1.66226 10.29,-0.98696 12.83,-4.7963 2.54,-3.80934 2.75,-8.44115 2.65,-12.84787 -0.16087,-6.490237 -0.829065,-12.963601 -2,-19.37569 -0.521563,-1.968137 -0.606401,-4.004152 -0.25,-5.99971 0.643463,-2.578622 2.950454,-4.602913 5.92,-5.19456 3.02118,-0.491891 6.024244,0.927571 7.18,3.39378 0.484767,1.62697 0.484767,3.33383 0,4.9608 -2.31,11.47997 -4.74,23.05517 -4.17,34.69963 0.2,4.14699 0.84,8.44115 3.39,11.95613 2.55,3.51499 7.44,6.06032 12.12,5.1253 1.513965,-0.270843 2.881782,-0.967969 3.89,-1.98259 0.693792,-0.776951 1.225144,-1.653044 1.57,-2.58862 1.591834,-4.073869 2.127862,-8.401253 1.57,-12.67471 -0.49,-3.63619 -1.76,-7.17715 -2.06,-10.83065 -0.3,-3.65351 -0.15,-10.70079 4.7,-10.70079 0.472593,-0.0046 0.937076,0.10646 1.34,0.32033 2.68,1.41985 3.17,4.54524 3.39,7.25507 l 0.82,10.21596 c 0.19,2.39815 0.87,5.34173 3.54,5.99105 2.39,0.58872 4.72,-1.21206 5.84,-3.13405 1.311309,-2.509789 1.940757,-5.246388 1.84,-7.99962 0.04863,-3.345506 -0.377899,-6.683504 -1.27,-9.93891 -0.79567,-2.274404 -1.347997,-4.607353 -1.65,-6.96936 -0.13,-2.36353 3.867008,-5.967373 6.547008,-6.460853 5.54,-1.01294 7.062992,3.162303 8.942992,7.776803 1.88,4.6145 1.26,9.68785 0.79,14.57939 -0.47,4.89154 -0.66,10.07743 2,14.38892 3.129036,4.684319 8.98321,7.496343 15.23,7.31566 6.2231,-0.296342 11.88676,-3.205392 15.17,-7.79183 1.95,-2.71849 3.93,-6.40662 7.62,-6.24213 3.27,0.13853 5.06,3.33318 5.74,6.06032 0.68,2.72714 1.27,5.9824 4.08,7.42821 3.55,1.83541 8.34,-0.74455 9.77,-4.1037 1.43,-3.35914 0.61,-7.06459 0.08,-10.6142 -0.53,-3.54962 -0.65,-7.48882 1.87,-10.31985 2.52,-2.83104 8.6,-3.27257 10.33,0 0.59843,1.489952 0.63345,3.106153 0.1,4.61449 -1.36,5.50623 -4,11.03843 -2.84,16.57929 1.16,5.54086 8.49,10.55361 14,7.61003 6,-3.186 3.79766,-17.837874 10.54766,-16.149644 5.67,1.41119 9.75234,10.504894 15.64234,10.236504 3,-0.13852 5.43,-2.39815 6.34,-4.88288 0.91,-2.48473 0.63,-5.19456 0.34,-7.74855 l -2.36,-21.15915 c -0.47,-4.20759 0.25,-9.86966 5.07,-10.58824 2.87,-0.42422 5.66,1.51508 6.74,3.86129 1.08,2.3462 0.83,4.97811 0.46,7.48016 -0.86335,5.795013 0.94471,10.197329 -1.11916,15.760434 -2.34,6.27675 -8.74084,14.229466 -6.56084,20.540846 3.69309,10.741778 19.72294,13.586768 28,4.96946 4,-4.1037 4.86,-9.76576 5,-15.1075 0.26,-15.32394 -4.93,-30.73445 -1.8,-45.81598 0.29,-1.40253 0.73,-2.90029 2,-3.78337 2.77,-1.90467 6.85,0.52812 8.48,3.25526 7.84,13.10759 -8,29.11548 -3.14,43.28796 2,5.97374 8.31,10.96051 15.5,11.25487 7.19,0.29436 14.44,-4.74436 14.63,-10.96917 0.11,-3.5323 -1.76,-7.35029 0.25,-10.38911 2.37,-3.61887 10.5,-3.72276 11.42,0.35496 1,4.60584 -1.93,9.08182 -3.15,13.65303 -1.22,4.5712 0.83,10.80467 6.24,11.08171 5.86,0.30302 10,-6.84815 15.72,-5.86119 2.37,0.39825 4.31,2.17306 6.73,2.21635 6.78,0.10389 2.14,-12.63143 12.39,-12.63143 9,0 8,12.25049 14.79,15.72219 5.91,3.00418 14,0.25107 17.94,-4.59718 3.94,-4.84826 4.68,-11.10769 4.62,-17.0468 -0.06,-5.93911 -0.76,-11.9648 0.82,-17.73941 0.57,-2.09514 1.64,-4.3288 3.88,-5.2465 4.11,-1.73152 11.08,-1.98259 10.77,4.96946 -0.54,11.93016 -7.78405,32.0859 11.08595,32.0859 6.55559,0.121652 10.41037,0.05021 14.59405,-4.321 3.81,-3.80069 5.79,-9.59262 6.52,-14.58805 1.39,-9.46275 -3.13,-18.56188 -1.75,-28.03328 0.38,-2.59728 3,-7.35896 6,-7.5754 3.63,-0.25972 7.3,2.59728 7.3,8.48444 v 29.5224 c 0,5.73132 0.07,11.70506 3,16.83901 2.93,5.13396 9.59,8.61431 16.1,7.54942 14.82,-2.44144 13.25,-20.354 12.2,-24.73474 -1.88,-7.79183 -5.57,-12.70934 -6.78,-19.8432 -0.86,-5.08201 -1.69,-10.38911 0.32,-15.24602 2.01,-4.85691 7.88,-8.89135 13.63,-7.62734 5.34,1.16877 8.29,6.19884 9.26,10.89125 1.52,7.30701 -0.07,14.81314 0.41,22.21538 0.48,7.40225 2.94511,13.554566 10.73511,16.645326 8.46,3.3678 20.69489,0.133094 22.23489,-7.823236 0.91,-4.68376 -2.56,-13.06431 4.46,-13.06431 4.1,0.21644 5.5,7.9217 6.08,12.46694 0.38,2.91761 0.14,5.93045 1.21,8.70954 1.07,2.77908 4,5.35039 7.4,4.96945 2.17297,-0.283209 4.16947,-1.199366 5.66,-2.59727 5.34,-5.67073 4.88,-11.17696 2.46,-21.24574 -1.72,-7.16848 -9.33,-25.60916 -0.33,-25.8256 10.12,0 13.62,22.1115 13.9,30.55265 0.18,5.2465 -0.36,10.53629 0.54,15.73084 0.9,5.19456 1.32277,10.47569 6.38277,13.38464 5.06,2.90895 15.02723,2.5107 18.46723,-1.80943 3.44,-4.32014 1.47,-10.18999 0.31,-15.37589 -1.16,-5.1859 -2.48,-8.85672 -2.48,-15.21139 0,-3.71411 2.88,-11.68775 10.88,-11.68775 15.62,0 4,22.12015 4.5,28.35362 0.46806,5.154598 4.29636,11.103305 8.43234,14.833213 4.09,3.64484 14.55766,3.235177 19.00766,-0.08933 3.26,-2.41547 3.55,-6.58843 5,-10.0861 1.45,-3.49767 6.25,-6.81352 9.69,-4.59718 1.1352,0.878309 1.97485,2.006106 2.43,3.26391 l 3.2,6.68366 c 1.38,2.85701 3.33,6.12958 6.87,6.57112 4.57,0.55408 7.75,-4.20759 7.5,-8.19009 -0.25,-3.98249 -2.46,-7.79183 -2.51,-11.73969 -0.05,-3.94786 3.68,-8.57968 8.13,-7.54076 4.45,1.03891 5.06,6.15554 4.8,10.11206 l -0.71,10.77871 c -0.24,3.51498 -0.43,7.22909 1.41,10.38911 1.84,3.16002 6.48,5.35905 10.1,3.74008 3.62,-1.61897 4.2,-5.59281 5.1,-8.9433 0.9,-3.35048 2.87,-8.82208 6.79,-8.22471 3.46,0.52811 5.8,5.83522 9,7.10789 3.74,1.4891 8.26,-1.12549 9.75,-4.45001 1.49,-3.32451 0.84,-7.03862 0.35,-10.57958 -1.04443,-7.577789 -1.29545,-15.221808 -0.75,-22.83873 0.17,-2.45875 0.67,-5.26381 3.07,-6.57977 2.4,-1.31595 5.39,-0.52811 7.27,1.09086 1.88,1.61897 2.19,3.95652 2.35,6.25078 0.55,7.59271 -3.46,14.77851 -6.22,21.99895 -2.76,7.22043 -4.44,13.41061 -0.44,21.20244 0.71,1.37656 2.88,5.08201 10.5,5.08201 12.88,0 20.54,-11.25487 22.5,-22.72618 1.49,-8.6576 -2.1,-21.38426 -3.87,-29.97259 -3.13,-15.15079 2.12022,-19.725705 5.95022,-20.089315 3.6824,-0.397287 9.05497,3.896806 11.08978,6.583475 1.94,2.70982 2.36,6.01702 2.43,9.20302 0.13816,6.148837 -0.80944,12.279866 -2.81,18.18094 -1.64,4.84825 -4,9.65322 -3.91,14.71791 0.13,6.06031 6.04106,12.820088 12.72106,14.577578 6.68,1.75749 13.46894,-2.612788 14.51894,-8.586528 0.54,-2.90029 -0.52,-5.85253 -0.47,-8.78745 0.05,-2.93493 1.93,-6.3287 5.31,-6.60575 4.6,-0.38093 6.81,5.08201 5.68,8.96061 -1.13,3.8786 -4,7.60137 -3.19,11.54923 0.9,4.63181 6.7,7.636 12.13,7.636 22.42,0 15.55066,-19.605355 23.21066,-19.605355 4.66,0 11.33934,4.342015 13.33934,8.887255 1.66,3.77471 4.25,8.22471 10.5,8.22471 19.25,0 23.88,-17.86927 22,-27.10692 -0.71,-3.51498 -2.3,-6.92608 -2.53,-10.44972 -0.23,-3.52364 1.36,-7.57539 5.14,-8.99524 3.78,-1.41984 10.24,0.66664 9.25,6.92608 -1.84,11.67043 -4.6,19.0467 -4.26,29.21937 0.21,6.19018 3.14,13.41062 10,15.28066 7.83,2.13842 15.17,-5.48026 15.6,-12.57083 0.43,-7.09057 -3.25,-13.85215 -4.44,-20.89077 -0.5,-2.94358 -0.53,-6.06032 0.92,-8.75283 1.45,-2.69251 4.68,-4.83093 8.1,-4.54523 3.42,0.2857 6.29,3.09942 7.34,6.06031 1.05,2.9609 0.8,6.13824 0.85,9.24631 0.0901,6.12366 1.32963,12.193902 3.67,17.97316 0.42632,1.352524 1.23775,2.590841 2.36,3.60156 2.13,1.6536 5.55,1.48911 8,0.27705 2.45,-1.21207 2.78,-4.39806 6,-5.19456 3.26,-0.21644 4.81,3.41109 7.51,5.01275 4,2.38949 10,-0.71858 11.2,-4.80497 1.2,-4.08638 -0.75,-8.37189 -3.06,-12.12063 -2.31,-3.74874 -5.05,-7.46284 -5.42,-11.67909 -0.37,-4.21625 2.68,-9.03853 7.56,-9.32423 6.28,-0.58006 10,15.48844 8.32,24.46636 -1.68,8.97792 -5.79,21.17647 1.75,26.49223 5.49,2.597275 12.89,0 16.19,-4.57986 3.3,-4.57987 3.21,-10.51898 1.55,-15.75682 -1.66,-5.23785 -4.71,-10.03415 -7.1,-15.0469 -4.8,-10.05146 -7,-21.15916 -5.21,-31.93786 0.65,-3.96518 3.91,-8.96061 8.26,-7.59271 2.87,0.86576 3.68,4.00847 4.06,6.63172 l 3.85,26.57015 c 0.65,4.50195 -0.21,19.77394 11.49,17.44505 10.87,-2.1644 -5.5,-43.5044 10,-43.5044 V 1.832515e-6 H 0.01 Z" />
</svg>