<svg xmlns="http://www.w3.org/2000/svg" preserveAspectRatio="none" viewBox="0 0 1440 320">
<path class="divider-fill"  d="M0,0L0,256L42.4,256L42.4,256L84.7,256L84.7,0L127.1,0L127.1,96L169.4,96L169.4,224L211.8,224L211.8,224L254.1,224L254.1,128L296.5,128L296.5,32L338.8,32L338.8,160L381.2,160L381.2,128L423.5,128L423.5,192L465.9,192L465.9,256L508.2,256L508.2,288L550.6,288L550.6,64L592.9,64L592.9,192L635.3,192L635.3,128L677.6,128L677.6,64L720,64L720,128L762.4,128L762.4,224L804.7,224L804.7,160L847.1,160L847.1,192L889.4,192L889.4,256L931.8,256L931.8,32L974.1,32L974.1,64L1016.5,64L1016.5,288L1058.8,288L1058.8,256L1101.2,256L1101.2,128L1143.5,128L1143.5,160L1185.9,160L1185.9,64L1228.2,64L1228.2,160L1270.6,160L1270.6,288L1312.9,288L1312.9,224L1355.3,224L1355.3,128L1397.6,128L1397.6,192L1440,192L1440,320L1397.6,320L1397.6,320L1355.3,320L1355.3,320L1312.9,320L1312.9,320L1270.6,320L1270.6,320L1228.2,320L1228.2,320L1185.9,320L1185.9,320L1143.5,320L1143.5,320L1101.2,320L1101.2,320L1058.8,320L1058.8,320L1016.5,320L1016.5,320L974.1,320L974.1,320L931.8,320L931.8,320L889.4,320L889.4,320L847.1,320L847.1,320L804.7,320L804.7,320L762.4,320L762.4,320L720,320L720,320L677.6,320L677.6,320L635.3,320L635.3,320L592.9,320L592.9,320L550.6,320L550.6,320L508.2,320L508.2,320L465.9,320L465.9,320L423.5,320L423.5,320L381.2,320L381.2,320L338.8,320L338.8,320L296.5,320L296.5,320L254.1,320L254.1,320L211.8,320L211.8,320L169.4,320L169.4,320L127.1,320L127.1,320L84.7,320L84.7,320L42.4,320L42.4,320L0,320L0,320Z"></path>
</svg>