<svg xmlns="http://www.w3.org/2000/svg" viewBox="0 0 1000 152" preserveAspectRatio="none">
<path class="divider-fill" d="M 1000,47 V -0.35 H 0 V 112 c 291,0 263,-66 445,-66 149.31,0 150.21,24.83 229.2,24.83 h 8.61 C 832.33,70.83 847.75,-3 1000,47 Z" />
<path class="divider-fill" style="opacity:0.5" d="M 1000,47 V -0.35 H 0 V 132 c 291,0 263,-86 445,-86 149.31,0 150.21,24.83 229.2,24.83 h 8.61 C 770,70.83 851.25,-3.75 1000,47 Z" />
<path class="divider-fill" style="opacity:0.4" d="M 1000,47.241221 C 822.49645,-10.376108 739.9948,71.016475 674.21348,71.016475 595.2119,71.016475 594.32189,46.243518 445.0089,46.243518 263.00526,46.243518 291.00582,152 0,152 V 0 h 1000 z" />
</svg>