<svg xmlns="http://www.w3.org/2000/svg" viewBox="0 0 1000 125" preserveAspectRatio="none">
<path class="divider-fill" style="opacity:0.5" d="m 0,81.659348 c 81.99918,0 88.739113,19.697032 141.99858,19.697032 46.67953,0 33.12967,-19.551122 85.12915,-19.551122 57.49943,0 75.87924,34.141512 143.87856,34.141512 55.99944,0 98.99901,-36.475982 149.49851,-36.475982 76.49923,0 77.32923,29.482322 131.49868,43.284832 55.99944,14.2694 72.82927,-44.169982 142.82857,-44.169982 41.37959,0 74.35926,28.033012 103.68897,28.033012 C 942.67057,106.61865 1000,75.093678 1000,75.093678 V 24.999998 H 0 Z" />
<path class="divider-fill" d="m 0,81.988666 c 97.331947,-14.74806 115.33231,19.667594 176.67353,19.667594 53.33107,0 60.14121,-51.965834 122.64246,-51.965834 84.00168,0 116.35232,90.668944 200.004,73.034484 80.0016,-16.85492 86.00172,-63.205964 153.34306,-63.205964 49.661,0 86.65174,33.00405 124.00248,33.00405 33.33067,0 51.27103,-31.16054 78.00156,-31.16054 43.93088,0 51.28103,31.0868 97.90196,28.83245 C 976.99954,89.015066 1000,74.267006 1000,74.267006 V 5.8499091e-6 H 0 Z" />
</svg>