<svg xmlns="http://www.w3.org/2000/svg" viewBox="0 0 100 100" preserveAspectRatio="none">
<path class="divider-fill" d="M66.709,62.141C63.674,62.141 62.115,50.388 60.619,37.105C62.048,29.579 63.814,24.051 66.352,24.051C69.374,24.051 71.362,33.025 73.031,44.299C71.577,51.437 70.374,62.141 66.709,62.141ZM41.114,57.818C40.604,57.416 40.051,57.19 39.441,57.19C33.91,57.19 32.305,76.639 28.938,82.663C30.102,85.32 31.71,87.871 33.333,87.871C36.993,87.87 39.088,73.872 41.114,57.818z" style="fill-opacity:0.3;"/>
<path class="divider-fill" d="M51.832,78.336C46.587,78.336 45.555,61.319 41.114,57.818C44.303,32.539 46.669,0 52.006,0C56.839,0 58.676,19.844 60.619,37.105C57.568,53.167 56.051,78.336 51.832,78.336ZM17.005,67.259C21.378,67.259 21.89,84.421 26.875,84.421C27.646,84.421 28.321,83.766 28.938,82.663C24.471,72.464 22.587,44.705 18.018,44.705C11.998,44.705 10.296,82.492 6.25,82.492C3.124,82.492 1.562,73.774 -0.001,61.416L-0.001,73.421C1.562,81.2 3.342,90.679 6.468,90.679C12.718,90.679 12.39,67.259 17.005,67.259ZM94.15,31.54C89.658,31.54 89.31,66.348 84.772,66.348C80.584,66.348 80.104,38.746 75.741,38.746C74.548,38.746 73.758,40.729 73.031,44.299C75.851,63.352 77.758,88.979 82.198,88.979C87.608,88.979 88.132,57.865 93.758,57.865C96.867,57.865 98.444,65.681 99.999,73.42L99.999,61.416C98.444,49.122 97.26,31.54 94.15,31.54z" style="fill-opacity:0.5;"/>
<path class="divider-fill" d="M82.198,88.979C77.757,88.979 75.851,63.353 73.031,44.299C71.577,51.437 70.374,62.141 66.709,62.141C63.674,62.141 62.115,50.388 60.619,37.105C57.568,53.167 56.05,78.336 51.832,78.336C46.587,78.336 45.555,61.319 41.113,57.818C39.088,73.871 36.862,87.87 33.202,87.87C31.578,87.87 30.102,85.32 28.938,82.662C28.321,83.766 27.645,84.42 26.875,84.42C21.89,84.42 21.378,67.259 17.005,67.259C12.39,67.259 12.674,90.634 6.424,90.634C3.298,90.634 1.562,81.199 -0.001,73.419L-0.001,100L99.999,100L99.999,73.42C98.444,65.681 96.867,57.865 93.758,57.865C88.132,57.865 87.608,88.979 82.198,88.979z"/>
</svg>